<mxfile host="Electron" modified="2024-03-04T11:09:24.561Z" agent="Mozilla/5.0 (X11; Linux x86_64) AppleWebKit/537.36 (KHTML, like Gecko) draw.io/23.1.5 Chrome/120.0.6099.109 Electron/28.1.0 Safari/537.36" etag="TMlk6pEqfE8IENaemQkA" version="23.1.5" type="device">
  <diagram name="Page-1" id="60BjsfEuQt3Qpa_CQxnq">
    <mxGraphModel dx="2004" dy="1203" grid="1" gridSize="10" guides="1" tooltips="1" connect="1" arrows="1" fold="1" page="1" pageScale="1" pageWidth="1169" pageHeight="827" math="0" shadow="0">
      <root>
        <mxCell id="0" />
        <mxCell id="1" parent="0" />
        <mxCell id="7wQhfwfNHQ7Kf5F1aOc0-6" value="" style="pointerEvents=1;verticalLabelPosition=bottom;shadow=0;dashed=0;align=center;html=1;verticalAlign=top;shape=mxgraph.electrical.miscellaneous.batteryStack;rotation=90;" vertex="1" parent="1">
          <mxGeometry x="499.75" y="111.75" width="119.5" height="75" as="geometry" />
        </mxCell>
        <mxCell id="7wQhfwfNHQ7Kf5F1aOc0-7" value="&lt;font style=&quot;font-size: 20px;&quot;&gt;&lt;b&gt;16V&lt;/b&gt;&lt;/font&gt;" style="text;html=1;align=center;verticalAlign=middle;resizable=0;points=[];autosize=1;strokeColor=none;fillColor=none;" vertex="1" parent="1">
          <mxGeometry x="460" y="129.25" width="60" height="40" as="geometry" />
        </mxCell>
        <mxCell id="7wQhfwfNHQ7Kf5F1aOc0-12" value="" style="endArrow=none;html=1;rounded=0;" edge="1" parent="1">
          <mxGeometry width="50" height="50" relative="1" as="geometry">
            <mxPoint x="20" y="820" as="sourcePoint" />
            <mxPoint x="20" y="820" as="targetPoint" />
          </mxGeometry>
        </mxCell>
        <mxCell id="7wQhfwfNHQ7Kf5F1aOc0-17" value="" style="pointerEvents=1;verticalLabelPosition=bottom;shadow=0;dashed=0;align=center;html=1;verticalAlign=top;shape=mxgraph.electrical.miscellaneous.batteryStack;rotation=90;" vertex="1" parent="1">
          <mxGeometry x="120" y="90" width="80" height="80" as="geometry" />
        </mxCell>
        <mxCell id="7wQhfwfNHQ7Kf5F1aOc0-18" value="&lt;font style=&quot;font-size: 20px;&quot;&gt;&lt;b&gt;8V&lt;/b&gt;&lt;/font&gt;" style="text;html=1;align=center;verticalAlign=middle;resizable=0;points=[];autosize=1;strokeColor=none;fillColor=none;" vertex="1" parent="1">
          <mxGeometry x="70" y="111.75" width="50" height="40" as="geometry" />
        </mxCell>
        <mxCell id="7wQhfwfNHQ7Kf5F1aOc0-19" value="" style="endArrow=none;html=1;rounded=0;entryX=0.62;entryY=0;entryDx=0;entryDy=0;entryPerimeter=0;" edge="1" parent="1" target="7wQhfwfNHQ7Kf5F1aOc0-33">
          <mxGeometry width="50" height="50" relative="1" as="geometry">
            <mxPoint x="40" y="90" as="sourcePoint" />
            <mxPoint x="1105" y="90" as="targetPoint" />
          </mxGeometry>
        </mxCell>
        <mxCell id="7wQhfwfNHQ7Kf5F1aOc0-21" value="" style="endArrow=none;html=1;rounded=0;" edge="1" parent="1">
          <mxGeometry width="50" height="50" relative="1" as="geometry">
            <mxPoint x="80" y="170" as="sourcePoint" />
            <mxPoint x="400" y="170" as="targetPoint" />
          </mxGeometry>
        </mxCell>
        <mxCell id="7wQhfwfNHQ7Kf5F1aOc0-22" value="SM" style="verticalLabelPosition=middle;shadow=0;dashed=0;align=center;html=1;verticalAlign=middle;strokeWidth=1;shape=ellipse;aspect=fixed;fontSize=35;" vertex="1" parent="1">
          <mxGeometry x="130" y="230" width="60" height="60" as="geometry" />
        </mxCell>
        <mxCell id="7wQhfwfNHQ7Kf5F1aOc0-23" value="SM" style="verticalLabelPosition=middle;shadow=0;dashed=0;align=center;html=1;verticalAlign=middle;strokeWidth=1;shape=ellipse;aspect=fixed;fontSize=35;" vertex="1" parent="1">
          <mxGeometry x="210" y="230" width="60" height="60" as="geometry" />
        </mxCell>
        <mxCell id="7wQhfwfNHQ7Kf5F1aOc0-24" value="SM" style="verticalLabelPosition=middle;shadow=0;dashed=0;align=center;html=1;verticalAlign=middle;strokeWidth=1;shape=ellipse;aspect=fixed;fontSize=35;" vertex="1" parent="1">
          <mxGeometry x="290" y="230" width="60" height="60" as="geometry" />
        </mxCell>
        <mxCell id="7wQhfwfNHQ7Kf5F1aOc0-25" value="SM" style="verticalLabelPosition=middle;shadow=0;dashed=0;align=center;html=1;verticalAlign=middle;strokeWidth=1;shape=ellipse;aspect=fixed;fontSize=35;" vertex="1" parent="1">
          <mxGeometry x="370" y="230" width="60" height="60" as="geometry" />
        </mxCell>
        <mxCell id="7wQhfwfNHQ7Kf5F1aOc0-26" value="" style="endArrow=none;html=1;rounded=0;" edge="1" parent="1">
          <mxGeometry width="50" height="50" relative="1" as="geometry">
            <mxPoint x="40" y="730" as="sourcePoint" />
            <mxPoint x="40" y="90" as="targetPoint" />
          </mxGeometry>
        </mxCell>
        <mxCell id="7wQhfwfNHQ7Kf5F1aOc0-28" value="" style="endArrow=none;html=1;rounded=0;exitX=0.5;exitY=0;exitDx=0;exitDy=0;" edge="1" parent="1" source="7wQhfwfNHQ7Kf5F1aOc0-22">
          <mxGeometry width="50" height="50" relative="1" as="geometry">
            <mxPoint x="150" y="200" as="sourcePoint" />
            <mxPoint x="160" y="170" as="targetPoint" />
          </mxGeometry>
        </mxCell>
        <mxCell id="7wQhfwfNHQ7Kf5F1aOc0-29" value="" style="endArrow=none;html=1;rounded=0;exitX=0.5;exitY=0;exitDx=0;exitDy=0;" edge="1" parent="1" source="7wQhfwfNHQ7Kf5F1aOc0-23">
          <mxGeometry width="50" height="50" relative="1" as="geometry">
            <mxPoint x="150" y="200" as="sourcePoint" />
            <mxPoint x="240" y="170" as="targetPoint" />
          </mxGeometry>
        </mxCell>
        <mxCell id="7wQhfwfNHQ7Kf5F1aOc0-30" value="" style="endArrow=none;html=1;rounded=0;exitX=0.5;exitY=0;exitDx=0;exitDy=0;exitPerimeter=0;" edge="1" parent="1" source="7wQhfwfNHQ7Kf5F1aOc0-24">
          <mxGeometry width="50" height="50" relative="1" as="geometry">
            <mxPoint x="150" y="200" as="sourcePoint" />
            <mxPoint x="320" y="170" as="targetPoint" />
          </mxGeometry>
        </mxCell>
        <mxCell id="7wQhfwfNHQ7Kf5F1aOc0-31" value="" style="endArrow=none;html=1;rounded=0;exitX=0.5;exitY=0;exitDx=0;exitDy=0;" edge="1" parent="1" source="7wQhfwfNHQ7Kf5F1aOc0-25">
          <mxGeometry width="50" height="50" relative="1" as="geometry">
            <mxPoint x="150" y="200" as="sourcePoint" />
            <mxPoint x="400" y="170" as="targetPoint" />
          </mxGeometry>
        </mxCell>
        <mxCell id="7wQhfwfNHQ7Kf5F1aOc0-32" value="" style="endArrow=none;html=1;rounded=0;exitX=1;exitY=0.395;exitDx=0;exitDy=0;exitPerimeter=0;" edge="1" parent="1" source="7wQhfwfNHQ7Kf5F1aOc0-35">
          <mxGeometry width="50" height="50" relative="1" as="geometry">
            <mxPoint x="80" y="330" as="sourcePoint" />
            <mxPoint x="80" y="170" as="targetPoint" />
          </mxGeometry>
        </mxCell>
        <mxCell id="7wQhfwfNHQ7Kf5F1aOc0-33" value="" style="pointerEvents=1;verticalLabelPosition=bottom;shadow=0;dashed=0;align=center;html=1;verticalAlign=top;shape=mxgraph.electrical.miscellaneous.chassis;rotation=-90;" vertex="1" parent="1">
          <mxGeometry x="1102" y="82" width="69" height="32" as="geometry" />
        </mxCell>
        <mxCell id="7wQhfwfNHQ7Kf5F1aOc0-35" value="" style="verticalLabelPosition=bottom;shadow=0;dashed=0;align=center;html=1;verticalAlign=top;shape=mxgraph.electrical.abstract.voltage_regulator;rotation=-90;" vertex="1" parent="1">
          <mxGeometry x="49.5" y="339.5" width="75" height="60" as="geometry" />
        </mxCell>
        <mxCell id="7wQhfwfNHQ7Kf5F1aOc0-36" value="&lt;font style=&quot;font-size: 20px;&quot;&gt;&lt;b&gt;5V&lt;/b&gt;&lt;/font&gt;" style="text;html=1;align=center;verticalAlign=middle;whiteSpace=wrap;rounded=0;" vertex="1" parent="1">
          <mxGeometry x="167.5" y="339.5" width="60" height="30" as="geometry" />
        </mxCell>
        <mxCell id="7wQhfwfNHQ7Kf5F1aOc0-38" value="" style="endArrow=none;html=1;rounded=0;exitX=0.5;exitY=1;exitDx=0;exitDy=0;exitPerimeter=0;" edge="1" parent="1" source="7wQhfwfNHQ7Kf5F1aOc0-35">
          <mxGeometry width="50" height="50" relative="1" as="geometry">
            <mxPoint x="120" y="370" as="sourcePoint" />
            <mxPoint x="240" y="370" as="targetPoint" />
          </mxGeometry>
        </mxCell>
        <mxCell id="7wQhfwfNHQ7Kf5F1aOc0-41" value="" style="endArrow=none;html=1;rounded=0;exitX=0.5;exitY=0;exitDx=0;exitDy=0;" edge="1" parent="1">
          <mxGeometry width="50" height="50" relative="1" as="geometry">
            <mxPoint x="139.5" y="449" as="sourcePoint" />
            <mxPoint x="139" y="370" as="targetPoint" />
          </mxGeometry>
        </mxCell>
        <mxCell id="7wQhfwfNHQ7Kf5F1aOc0-42" value="" style="endArrow=none;html=1;rounded=0;exitX=0.5;exitY=0;exitDx=0;exitDy=0;" edge="1" parent="1" source="7wQhfwfNHQ7Kf5F1aOc0-48">
          <mxGeometry width="50" height="50" relative="1" as="geometry">
            <mxPoint x="240" y="410" as="sourcePoint" />
            <mxPoint x="240" y="370" as="targetPoint" />
          </mxGeometry>
        </mxCell>
        <mxCell id="7wQhfwfNHQ7Kf5F1aOc0-43" value="" style="endArrow=none;html=1;rounded=0;entryX=0.5;entryY=1;entryDx=0;entryDy=0;" edge="1" parent="1">
          <mxGeometry width="50" height="50" relative="1" as="geometry">
            <mxPoint x="140" y="569" as="sourcePoint" />
            <mxPoint x="141.5" y="489" as="targetPoint" />
          </mxGeometry>
        </mxCell>
        <mxCell id="7wQhfwfNHQ7Kf5F1aOc0-44" value="" style="endArrow=none;html=1;rounded=0;entryX=0.5;entryY=1;entryDx=0;entryDy=0;" edge="1" parent="1">
          <mxGeometry width="50" height="50" relative="1" as="geometry">
            <mxPoint x="240" y="569" as="sourcePoint" />
            <mxPoint x="239.25" y="489" as="targetPoint" />
          </mxGeometry>
        </mxCell>
        <mxCell id="7wQhfwfNHQ7Kf5F1aOc0-45" value="" style="endArrow=none;html=1;rounded=0;" edge="1" parent="1">
          <mxGeometry width="50" height="50" relative="1" as="geometry">
            <mxPoint x="80" y="569" as="sourcePoint" />
            <mxPoint x="240" y="569" as="targetPoint" />
          </mxGeometry>
        </mxCell>
        <mxCell id="7wQhfwfNHQ7Kf5F1aOc0-46" value="" style="endArrow=none;html=1;rounded=0;entryX=0;entryY=0.395;entryDx=0;entryDy=0;entryPerimeter=0;" edge="1" parent="1">
          <mxGeometry width="50" height="50" relative="1" as="geometry">
            <mxPoint x="80" y="569" as="sourcePoint" />
            <mxPoint x="80.69999999999982" y="406" as="targetPoint" />
          </mxGeometry>
        </mxCell>
        <mxCell id="7wQhfwfNHQ7Kf5F1aOc0-47" value="" style="endArrow=none;html=1;rounded=0;" edge="1" parent="1">
          <mxGeometry width="50" height="50" relative="1" as="geometry">
            <mxPoint x="80" y="569" as="sourcePoint" />
            <mxPoint x="40" y="569" as="targetPoint" />
          </mxGeometry>
        </mxCell>
        <mxCell id="7wQhfwfNHQ7Kf5F1aOc0-48" value="Capteur Acoustique" style="rounded=0;whiteSpace=wrap;html=1;rotation=0;" vertex="1" parent="1">
          <mxGeometry x="200.5" y="448" width="77.5" height="42" as="geometry" />
        </mxCell>
        <mxCell id="7wQhfwfNHQ7Kf5F1aOc0-49" value="Capteur Acoustique" style="rounded=0;whiteSpace=wrap;html=1;rotation=0;" vertex="1" parent="1">
          <mxGeometry x="103" y="449" width="77" height="41" as="geometry" />
        </mxCell>
        <mxCell id="7wQhfwfNHQ7Kf5F1aOc0-50" value="&lt;font style=&quot;font-size: 15px;&quot;&gt;&lt;b&gt;8V-5V&lt;/b&gt;&lt;/font&gt;" style="text;html=1;align=center;verticalAlign=middle;whiteSpace=wrap;rounded=0;" vertex="1" parent="1">
          <mxGeometry x="51.5" y="354.5" width="60" height="30" as="geometry" />
        </mxCell>
        <mxCell id="7wQhfwfNHQ7Kf5F1aOc0-51" value="" style="endArrow=none;html=1;rounded=0;" edge="1" parent="1">
          <mxGeometry width="50" height="50" relative="1" as="geometry">
            <mxPoint x="160" y="330" as="sourcePoint" />
            <mxPoint x="400" y="330" as="targetPoint" />
          </mxGeometry>
        </mxCell>
        <mxCell id="7wQhfwfNHQ7Kf5F1aOc0-52" value="" style="endArrow=none;html=1;rounded=0;entryX=0.5;entryY=1;entryDx=0;entryDy=0;" edge="1" parent="1" target="7wQhfwfNHQ7Kf5F1aOc0-22">
          <mxGeometry width="50" height="50" relative="1" as="geometry">
            <mxPoint x="160" y="330" as="sourcePoint" />
            <mxPoint x="-20" y="330" as="targetPoint" />
          </mxGeometry>
        </mxCell>
        <mxCell id="7wQhfwfNHQ7Kf5F1aOc0-53" value="" style="endArrow=none;html=1;rounded=0;entryX=0.5;entryY=1;entryDx=0;entryDy=0;" edge="1" parent="1" target="7wQhfwfNHQ7Kf5F1aOc0-23">
          <mxGeometry width="50" height="50" relative="1" as="geometry">
            <mxPoint x="240" y="330" as="sourcePoint" />
            <mxPoint x="-20" y="330" as="targetPoint" />
          </mxGeometry>
        </mxCell>
        <mxCell id="7wQhfwfNHQ7Kf5F1aOc0-54" value="" style="endArrow=none;html=1;rounded=0;entryX=0.5;entryY=1;entryDx=0;entryDy=0;" edge="1" parent="1" target="7wQhfwfNHQ7Kf5F1aOc0-24">
          <mxGeometry width="50" height="50" relative="1" as="geometry">
            <mxPoint x="320" y="330" as="sourcePoint" />
            <mxPoint x="-20" y="330" as="targetPoint" />
          </mxGeometry>
        </mxCell>
        <mxCell id="7wQhfwfNHQ7Kf5F1aOc0-55" value="" style="endArrow=none;html=1;rounded=0;entryX=0.5;entryY=1;entryDx=0;entryDy=0;" edge="1" parent="1" target="7wQhfwfNHQ7Kf5F1aOc0-25">
          <mxGeometry width="50" height="50" relative="1" as="geometry">
            <mxPoint x="400" y="330" as="sourcePoint" />
            <mxPoint x="-20" y="330" as="targetPoint" />
          </mxGeometry>
        </mxCell>
        <mxCell id="7wQhfwfNHQ7Kf5F1aOc0-56" value="" style="endArrow=none;html=1;rounded=0;" edge="1" parent="1">
          <mxGeometry width="50" height="50" relative="1" as="geometry">
            <mxPoint x="360" y="610" as="sourcePoint" />
            <mxPoint x="360" y="330" as="targetPoint" />
          </mxGeometry>
        </mxCell>
        <mxCell id="7wQhfwfNHQ7Kf5F1aOc0-57" value="" style="endArrow=none;html=1;rounded=0;" edge="1" parent="1">
          <mxGeometry width="50" height="50" relative="1" as="geometry">
            <mxPoint x="40" y="610" as="sourcePoint" />
            <mxPoint x="360" y="610" as="targetPoint" />
          </mxGeometry>
        </mxCell>
        <mxCell id="7wQhfwfNHQ7Kf5F1aOc0-58" value="" style="endArrow=none;html=1;rounded=0;" edge="1" parent="1">
          <mxGeometry width="50" height="50" relative="1" as="geometry">
            <mxPoint x="480" y="210" as="sourcePoint" />
            <mxPoint x="760" y="210" as="targetPoint" />
          </mxGeometry>
        </mxCell>
        <mxCell id="7wQhfwfNHQ7Kf5F1aOc0-59" value="" style="endArrow=none;html=1;rounded=0;exitX=1;exitY=0.395;exitDx=0;exitDy=0;exitPerimeter=0;" edge="1" parent="1" source="7wQhfwfNHQ7Kf5F1aOc0-60">
          <mxGeometry width="50" height="50" relative="1" as="geometry">
            <mxPoint x="480" y="370" as="sourcePoint" />
            <mxPoint x="480" y="210" as="targetPoint" />
          </mxGeometry>
        </mxCell>
        <mxCell id="7wQhfwfNHQ7Kf5F1aOc0-60" value="" style="verticalLabelPosition=bottom;shadow=0;dashed=0;align=center;html=1;verticalAlign=top;shape=mxgraph.electrical.abstract.voltage_regulator;rotation=-90;" vertex="1" parent="1">
          <mxGeometry x="428.87" y="505" width="124.25" height="110.5" as="geometry" />
        </mxCell>
        <mxCell id="7wQhfwfNHQ7Kf5F1aOc0-61" value="" style="endArrow=none;html=1;rounded=0;exitX=0.5;exitY=1;exitDx=0;exitDy=0;exitPerimeter=0;" edge="1" parent="1" source="7wQhfwfNHQ7Kf5F1aOc0-60">
          <mxGeometry width="50" height="50" relative="1" as="geometry">
            <mxPoint x="520" y="701" as="sourcePoint" />
            <mxPoint x="660" y="560" as="targetPoint" />
          </mxGeometry>
        </mxCell>
        <mxCell id="7wQhfwfNHQ7Kf5F1aOc0-62" value="" style="endArrow=none;html=1;rounded=0;entryX=0;entryY=0.395;entryDx=0;entryDy=0;entryPerimeter=0;" edge="1" parent="1" target="7wQhfwfNHQ7Kf5F1aOc0-60">
          <mxGeometry width="50" height="50" relative="1" as="geometry">
            <mxPoint x="480" y="690" as="sourcePoint" />
            <mxPoint x="481.5474999999997" y="614.5" as="targetPoint" />
          </mxGeometry>
        </mxCell>
        <mxCell id="7wQhfwfNHQ7Kf5F1aOc0-63" value="&lt;font style=&quot;font-size: 15px;&quot;&gt;&lt;b&gt;Régulateur 16V-5V intégré au PCB&lt;/b&gt;&lt;/font&gt;" style="text;html=1;align=center;verticalAlign=middle;whiteSpace=wrap;rounded=0;" vertex="1" parent="1">
          <mxGeometry x="450" y="550.25" width="60" height="30" as="geometry" />
        </mxCell>
        <mxCell id="7wQhfwfNHQ7Kf5F1aOc0-64" value="&lt;font style=&quot;font-size: 20px;&quot;&gt;&lt;b&gt;8V&lt;/b&gt;&lt;/font&gt;" style="text;html=1;align=center;verticalAlign=middle;resizable=0;points=[];autosize=1;strokeColor=none;fillColor=none;" vertex="1" parent="1">
          <mxGeometry x="250" y="129.25" width="50" height="40" as="geometry" />
        </mxCell>
        <mxCell id="7wQhfwfNHQ7Kf5F1aOc0-65" value="" style="pointerEvents=1;verticalLabelPosition=bottom;shadow=0;dashed=0;align=center;html=1;verticalAlign=top;shape=mxgraph.electrical.miscellaneous.chassis;" vertex="1" parent="1">
          <mxGeometry y="730" width="65" height="32" as="geometry" />
        </mxCell>
        <mxCell id="7wQhfwfNHQ7Kf5F1aOc0-66" value="POE Lidar VLP16" style="rounded=0;whiteSpace=wrap;html=1;rotation=0;" vertex="1" parent="1">
          <mxGeometry x="521" y="249" width="77" height="41" as="geometry" />
        </mxCell>
        <mxCell id="7wQhfwfNHQ7Kf5F1aOc0-67" value="POE Ubiquiti" style="rounded=0;whiteSpace=wrap;html=1;rotation=0;" vertex="1" parent="1">
          <mxGeometry x="621.25" y="249" width="77" height="41" as="geometry" />
        </mxCell>
        <mxCell id="7wQhfwfNHQ7Kf5F1aOc0-68" value="Intel Nuc" style="rounded=0;whiteSpace=wrap;html=1;rotation=0;" vertex="1" parent="1">
          <mxGeometry x="721" y="249" width="77" height="41" as="geometry" />
        </mxCell>
        <mxCell id="7wQhfwfNHQ7Kf5F1aOc0-69" value="" style="endArrow=none;html=1;rounded=0;exitX=0.5;exitY=0;exitDx=0;exitDy=0;entryX=1;entryY=0.5;entryDx=0;entryDy=0;" edge="1" parent="1" source="7wQhfwfNHQ7Kf5F1aOc0-66" target="7wQhfwfNHQ7Kf5F1aOc0-6">
          <mxGeometry width="50" height="50" relative="1" as="geometry">
            <mxPoint x="310" y="490" as="sourcePoint" />
            <mxPoint x="560" y="210" as="targetPoint" />
          </mxGeometry>
        </mxCell>
        <mxCell id="7wQhfwfNHQ7Kf5F1aOc0-70" value="" style="endArrow=none;html=1;rounded=0;exitX=0.5;exitY=0;exitDx=0;exitDy=0;" edge="1" parent="1" source="7wQhfwfNHQ7Kf5F1aOc0-67">
          <mxGeometry width="50" height="50" relative="1" as="geometry">
            <mxPoint x="310" y="490" as="sourcePoint" />
            <mxPoint x="660" y="210" as="targetPoint" />
          </mxGeometry>
        </mxCell>
        <mxCell id="7wQhfwfNHQ7Kf5F1aOc0-71" value="" style="endArrow=none;html=1;rounded=0;exitX=0.5;exitY=0;exitDx=0;exitDy=0;" edge="1" parent="1" source="7wQhfwfNHQ7Kf5F1aOc0-68">
          <mxGeometry width="50" height="50" relative="1" as="geometry">
            <mxPoint x="310" y="490" as="sourcePoint" />
            <mxPoint x="760" y="210" as="targetPoint" />
          </mxGeometry>
        </mxCell>
        <mxCell id="7wQhfwfNHQ7Kf5F1aOc0-72" value="" style="endArrow=none;html=1;rounded=0;entryX=0.25;entryY=1;entryDx=0;entryDy=0;" edge="1" parent="1" target="7wQhfwfNHQ7Kf5F1aOc0-68">
          <mxGeometry width="50" height="50" relative="1" as="geometry">
            <mxPoint x="740" y="330" as="sourcePoint" />
            <mxPoint x="470" y="450" as="targetPoint" />
          </mxGeometry>
        </mxCell>
        <mxCell id="7wQhfwfNHQ7Kf5F1aOc0-73" value="" style="endArrow=none;html=1;rounded=0;" edge="1" parent="1">
          <mxGeometry width="50" height="50" relative="1" as="geometry">
            <mxPoint x="520" y="330" as="sourcePoint" />
            <mxPoint x="740" y="330" as="targetPoint" />
          </mxGeometry>
        </mxCell>
        <mxCell id="7wQhfwfNHQ7Kf5F1aOc0-74" value="" style="endArrow=none;html=1;rounded=0;entryX=0.5;entryY=1;entryDx=0;entryDy=0;" edge="1" parent="1" target="7wQhfwfNHQ7Kf5F1aOc0-67">
          <mxGeometry width="50" height="50" relative="1" as="geometry">
            <mxPoint x="660" y="330" as="sourcePoint" />
            <mxPoint x="470" y="450" as="targetPoint" />
          </mxGeometry>
        </mxCell>
        <mxCell id="7wQhfwfNHQ7Kf5F1aOc0-75" value="" style="endArrow=none;html=1;rounded=0;entryX=0.5;entryY=1;entryDx=0;entryDy=0;" edge="1" parent="1">
          <mxGeometry width="50" height="50" relative="1" as="geometry">
            <mxPoint x="560" y="330" as="sourcePoint" />
            <mxPoint x="559.5" y="290" as="targetPoint" />
          </mxGeometry>
        </mxCell>
        <mxCell id="7wQhfwfNHQ7Kf5F1aOc0-76" value="" style="endArrow=none;html=1;rounded=0;" edge="1" parent="1">
          <mxGeometry width="50" height="50" relative="1" as="geometry">
            <mxPoint x="520" y="490" as="sourcePoint" />
            <mxPoint x="520" y="330" as="targetPoint" />
          </mxGeometry>
        </mxCell>
        <mxCell id="7wQhfwfNHQ7Kf5F1aOc0-77" value="" style="endArrow=none;html=1;rounded=0;entryX=0.5;entryY=1;entryDx=0;entryDy=0;" edge="1" parent="1" target="7wQhfwfNHQ7Kf5F1aOc0-68">
          <mxGeometry width="50" height="50" relative="1" as="geometry">
            <mxPoint x="760" y="370" as="sourcePoint" />
            <mxPoint x="470" y="450" as="targetPoint" />
          </mxGeometry>
        </mxCell>
        <mxCell id="7wQhfwfNHQ7Kf5F1aOc0-78" value="&lt;font style=&quot;font-size: 20px;&quot;&gt;&lt;b&gt;5V&lt;/b&gt;&lt;/font&gt;" style="text;html=1;align=center;verticalAlign=middle;whiteSpace=wrap;rounded=0;" vertex="1" parent="1">
          <mxGeometry x="760" y="320" width="60" height="30" as="geometry" />
        </mxCell>
        <mxCell id="7wQhfwfNHQ7Kf5F1aOc0-79" value="" style="endArrow=none;html=1;rounded=0;" edge="1" parent="1">
          <mxGeometry width="50" height="50" relative="1" as="geometry">
            <mxPoint x="600" y="370" as="sourcePoint" />
            <mxPoint x="760" y="370" as="targetPoint" />
          </mxGeometry>
        </mxCell>
        <mxCell id="7wQhfwfNHQ7Kf5F1aOc0-80" value="ESP32" style="rounded=0;whiteSpace=wrap;html=1;rotation=0;" vertex="1" parent="1">
          <mxGeometry x="561" y="410" width="79" height="41" as="geometry" />
        </mxCell>
        <mxCell id="7wQhfwfNHQ7Kf5F1aOc0-81" value="IMU (Ellipse D)" style="rounded=0;whiteSpace=wrap;html=1;rotation=0;" vertex="1" parent="1">
          <mxGeometry x="658" y="410" width="90" height="41" as="geometry" />
        </mxCell>
        <mxCell id="7wQhfwfNHQ7Kf5F1aOc0-82" value="Clé 4G (D-Link)" style="rounded=0;whiteSpace=wrap;html=1;rotation=0;" vertex="1" parent="1">
          <mxGeometry x="775" y="410" width="90" height="41" as="geometry" />
        </mxCell>
        <mxCell id="7wQhfwfNHQ7Kf5F1aOc0-83" value="" style="endArrow=none;html=1;rounded=0;exitX=0.5;exitY=0;exitDx=0;exitDy=0;" edge="1" parent="1" source="7wQhfwfNHQ7Kf5F1aOc0-80">
          <mxGeometry width="50" height="50" relative="1" as="geometry">
            <mxPoint x="420" y="500" as="sourcePoint" />
            <mxPoint x="600" y="370" as="targetPoint" />
          </mxGeometry>
        </mxCell>
        <mxCell id="7wQhfwfNHQ7Kf5F1aOc0-84" value="" style="endArrow=none;html=1;rounded=0;exitX=0.5;exitY=0;exitDx=0;exitDy=0;" edge="1" parent="1" source="7wQhfwfNHQ7Kf5F1aOc0-81">
          <mxGeometry width="50" height="50" relative="1" as="geometry">
            <mxPoint x="603" y="420" as="sourcePoint" />
            <mxPoint x="703" y="370" as="targetPoint" />
          </mxGeometry>
        </mxCell>
        <mxCell id="7wQhfwfNHQ7Kf5F1aOc0-85" value="" style="endArrow=none;html=1;rounded=0;" edge="1" parent="1">
          <mxGeometry width="50" height="50" relative="1" as="geometry">
            <mxPoint x="820" y="370" as="sourcePoint" />
            <mxPoint x="760" y="370" as="targetPoint" />
          </mxGeometry>
        </mxCell>
        <mxCell id="7wQhfwfNHQ7Kf5F1aOc0-86" value="" style="endArrow=none;html=1;rounded=0;exitX=0.5;exitY=0;exitDx=0;exitDy=0;" edge="1" parent="1" source="7wQhfwfNHQ7Kf5F1aOc0-82">
          <mxGeometry width="50" height="50" relative="1" as="geometry">
            <mxPoint x="830" y="380" as="sourcePoint" />
            <mxPoint x="820" y="370" as="targetPoint" />
          </mxGeometry>
        </mxCell>
        <mxCell id="7wQhfwfNHQ7Kf5F1aOc0-87" value="" style="endArrow=none;html=1;rounded=0;entryX=0.5;entryY=1;entryDx=0;entryDy=0;" edge="1" parent="1" target="7wQhfwfNHQ7Kf5F1aOc0-80">
          <mxGeometry width="50" height="50" relative="1" as="geometry">
            <mxPoint x="600" y="490" as="sourcePoint" />
            <mxPoint x="470" y="530" as="targetPoint" />
          </mxGeometry>
        </mxCell>
        <mxCell id="7wQhfwfNHQ7Kf5F1aOc0-88" value="" style="endArrow=none;html=1;rounded=0;entryX=0.5;entryY=1;entryDx=0;entryDy=0;" edge="1" parent="1" target="7wQhfwfNHQ7Kf5F1aOc0-81">
          <mxGeometry width="50" height="50" relative="1" as="geometry">
            <mxPoint x="703" y="490" as="sourcePoint" />
            <mxPoint x="611" y="461" as="targetPoint" />
          </mxGeometry>
        </mxCell>
        <mxCell id="7wQhfwfNHQ7Kf5F1aOc0-89" value="" style="endArrow=none;html=1;rounded=0;entryX=0.5;entryY=1;entryDx=0;entryDy=0;" edge="1" parent="1" target="7wQhfwfNHQ7Kf5F1aOc0-82">
          <mxGeometry width="50" height="50" relative="1" as="geometry">
            <mxPoint x="820" y="490" as="sourcePoint" />
            <mxPoint x="820.5" y="464" as="targetPoint" />
          </mxGeometry>
        </mxCell>
        <mxCell id="7wQhfwfNHQ7Kf5F1aOc0-90" value="" style="endArrow=none;html=1;rounded=0;" edge="1" parent="1">
          <mxGeometry width="50" height="50" relative="1" as="geometry">
            <mxPoint x="520" y="490" as="sourcePoint" />
            <mxPoint x="820" y="490" as="targetPoint" />
          </mxGeometry>
        </mxCell>
        <mxCell id="7wQhfwfNHQ7Kf5F1aOc0-91" value="" style="endArrow=none;html=1;rounded=0;" edge="1" parent="1">
          <mxGeometry width="50" height="50" relative="1" as="geometry">
            <mxPoint x="740" y="690" as="sourcePoint" />
            <mxPoint x="740" y="490" as="targetPoint" />
          </mxGeometry>
        </mxCell>
        <mxCell id="7wQhfwfNHQ7Kf5F1aOc0-92" value="&lt;font style=&quot;font-size: 20px;&quot;&gt;&lt;b&gt;5V&lt;/b&gt;&lt;/font&gt;" style="text;html=1;align=center;verticalAlign=middle;whiteSpace=wrap;rounded=0;" vertex="1" parent="1">
          <mxGeometry x="570.5" y="530" width="60" height="30" as="geometry" />
        </mxCell>
        <mxCell id="7wQhfwfNHQ7Kf5F1aOc0-93" value="Récepteur RF (FR-SKY)" style="rounded=0;whiteSpace=wrap;html=1;rotation=0;" vertex="1" parent="1">
          <mxGeometry x="518.25" y="620" width="81.75" height="50" as="geometry" />
        </mxCell>
        <mxCell id="7wQhfwfNHQ7Kf5F1aOc0-94" value="Arduino ATMEGA 2560 Mini" style="rounded=0;whiteSpace=wrap;html=1;rotation=0;" vertex="1" parent="1">
          <mxGeometry x="621.25" y="620" width="78.75" height="50" as="geometry" />
        </mxCell>
        <mxCell id="7wQhfwfNHQ7Kf5F1aOc0-96" value="" style="endArrow=none;html=1;rounded=0;exitX=0.5;exitY=0;exitDx=0;exitDy=0;" edge="1" parent="1" source="7wQhfwfNHQ7Kf5F1aOc0-93">
          <mxGeometry width="50" height="50" relative="1" as="geometry">
            <mxPoint x="520" y="460" as="sourcePoint" />
            <mxPoint x="560" y="560" as="targetPoint" />
          </mxGeometry>
        </mxCell>
        <mxCell id="7wQhfwfNHQ7Kf5F1aOc0-97" value="" style="endArrow=none;html=1;rounded=0;exitX=0.5;exitY=0;exitDx=0;exitDy=0;" edge="1" parent="1" source="7wQhfwfNHQ7Kf5F1aOc0-94">
          <mxGeometry width="50" height="50" relative="1" as="geometry">
            <mxPoint x="520" y="460" as="sourcePoint" />
            <mxPoint x="660" y="560" as="targetPoint" />
          </mxGeometry>
        </mxCell>
        <mxCell id="7wQhfwfNHQ7Kf5F1aOc0-101" value="" style="endArrow=none;html=1;rounded=0;" edge="1" parent="1">
          <mxGeometry width="50" height="50" relative="1" as="geometry">
            <mxPoint x="40" y="690" as="sourcePoint" />
            <mxPoint x="740" y="690" as="targetPoint" />
          </mxGeometry>
        </mxCell>
        <mxCell id="7wQhfwfNHQ7Kf5F1aOc0-102" value="" style="endArrow=none;html=1;rounded=0;" edge="1" parent="1">
          <mxGeometry width="50" height="50" relative="1" as="geometry">
            <mxPoint x="560" y="690" as="sourcePoint" />
            <mxPoint x="560" y="670" as="targetPoint" />
          </mxGeometry>
        </mxCell>
        <mxCell id="7wQhfwfNHQ7Kf5F1aOc0-103" value="" style="endArrow=none;html=1;rounded=0;entryX=0.5;entryY=1;entryDx=0;entryDy=0;" edge="1" parent="1" target="7wQhfwfNHQ7Kf5F1aOc0-94">
          <mxGeometry width="50" height="50" relative="1" as="geometry">
            <mxPoint x="661" y="690" as="sourcePoint" />
            <mxPoint x="650" y="450" as="targetPoint" />
          </mxGeometry>
        </mxCell>
        <mxCell id="7wQhfwfNHQ7Kf5F1aOc0-105" value="" style="pointerEvents=1;verticalLabelPosition=bottom;shadow=0;dashed=0;align=center;html=1;verticalAlign=top;shape=mxgraph.electrical.miscellaneous.batteryStack;rotation=90;" vertex="1" parent="1">
          <mxGeometry x="849" y="162" width="220" height="75" as="geometry" />
        </mxCell>
        <mxCell id="7wQhfwfNHQ7Kf5F1aOc0-106" value="&lt;font style=&quot;font-size: 20px;&quot;&gt;&lt;b&gt;30V&lt;/b&gt;&lt;/font&gt;" style="text;html=1;align=center;verticalAlign=middle;resizable=0;points=[];autosize=1;strokeColor=none;fillColor=none;" vertex="1" parent="1">
          <mxGeometry x="820" y="169.25" width="60" height="40" as="geometry" />
        </mxCell>
        <mxCell id="7wQhfwfNHQ7Kf5F1aOc0-107" value="" style="endArrow=none;html=1;rounded=0;entryX=1;entryY=0.5;entryDx=0;entryDy=0;exitX=0.5;exitY=0;exitDx=0;exitDy=0;" edge="1" parent="1" source="7wQhfwfNHQ7Kf5F1aOc0-108" target="7wQhfwfNHQ7Kf5F1aOc0-105">
          <mxGeometry width="50" height="50" relative="1" as="geometry">
            <mxPoint x="959" y="412" as="sourcePoint" />
            <mxPoint x="729" y="412" as="targetPoint" />
          </mxGeometry>
        </mxCell>
        <mxCell id="7wQhfwfNHQ7Kf5F1aOc0-108" value="Propulseur Torqeedo Ultralight 403" style="rounded=0;whiteSpace=wrap;html=1;rotation=0;" vertex="1" parent="1">
          <mxGeometry x="911" y="410" width="96" height="80" as="geometry" />
        </mxCell>
        <mxCell id="7wQhfwfNHQ7Kf5F1aOc0-109" value="" style="endArrow=none;html=1;rounded=0;entryX=0.5;entryY=1;entryDx=0;entryDy=0;" edge="1" parent="1" target="7wQhfwfNHQ7Kf5F1aOc0-108">
          <mxGeometry width="50" height="50" relative="1" as="geometry">
            <mxPoint x="960" y="690" as="sourcePoint" />
            <mxPoint x="690" y="410" as="targetPoint" />
          </mxGeometry>
        </mxCell>
        <mxCell id="7wQhfwfNHQ7Kf5F1aOc0-110" value="" style="endArrow=none;html=1;rounded=0;" edge="1" parent="1">
          <mxGeometry width="50" height="50" relative="1" as="geometry">
            <mxPoint x="740" y="690" as="sourcePoint" />
            <mxPoint x="960" y="690" as="targetPoint" />
          </mxGeometry>
        </mxCell>
        <mxCell id="7wQhfwfNHQ7Kf5F1aOc0-111" value="SM" style="verticalLabelPosition=middle;shadow=0;dashed=0;align=center;html=1;verticalAlign=middle;strokeWidth=1;shape=ellipse;aspect=fixed;fontSize=35;" vertex="1" parent="1">
          <mxGeometry x="167.5" y="702" width="60" height="60" as="geometry" />
        </mxCell>
        <mxCell id="7wQhfwfNHQ7Kf5F1aOc0-112" value="&lt;font style=&quot;font-size: 15px;&quot;&gt;&lt;b&gt;Servomoteur&amp;nbsp;&lt;/b&gt;&lt;/font&gt;" style="text;html=1;align=center;verticalAlign=middle;whiteSpace=wrap;rounded=0;" vertex="1" parent="1">
          <mxGeometry x="240" y="717" width="102" height="30" as="geometry" />
        </mxCell>
        <mxCell id="7wQhfwfNHQ7Kf5F1aOc0-113" value="&lt;font size=&quot;1&quot; style=&quot;&quot;&gt;&lt;b style=&quot;font-size: 25px;&quot;&gt;Schéma d&#39;alimentation électrique&amp;nbsp;&lt;/b&gt;&lt;/font&gt;" style="text;html=1;align=center;verticalAlign=middle;whiteSpace=wrap;rounded=0;" vertex="1" parent="1">
          <mxGeometry x="210" y="30" width="730" height="30" as="geometry" />
        </mxCell>
      </root>
    </mxGraphModel>
  </diagram>
</mxfile>
